G04 DipTrace 3.1.0.1*
G04 Bottom.gbr*
%MOIN*%
G04 #@! TF.FileFunction,Copper,L2,Bot*
G04 #@! TF.Part,Single*
G04 #@! TA.AperFunction,Conductor*
%ADD14C,0.012992*%
G04 #@! TA.AperFunction,CopperBalancing*
%ADD15C,0.025*%
G04 #@! TA.AperFunction,ComponentPad*
%ADD17R,0.066929X0.066929*%
%ADD18C,0.066929*%
G04 #@! TA.AperFunction,ViaPad*
%ADD20C,0.04*%
%FSLAX26Y26*%
G04*
G70*
G90*
G75*
G01*
G04 Bottom*
%LPD*%
X723871Y531500D2*
D14*
Y718016D1*
X697887Y744000D1*
X450249D1*
X775840Y531500D2*
Y845535D1*
X762336Y859039D1*
Y967028D1*
X775840Y980531D1*
X801824Y531500D2*
Y927539D1*
X749856Y531500D2*
Y748272D1*
X706430Y791697D1*
Y1212717D1*
X790592Y1269984D2*
X543678D1*
X503206Y1310457D1*
Y894000D2*
Y844000D1*
X450249D1*
X1022052Y1309472D2*
X568678D1*
X542694Y996992D2*
Y944000D1*
X450249D1*
X652493Y944146D2*
Y1218016D1*
X626509Y1244000D1*
X450249D1*
X613005Y983634D2*
X621671Y992299D1*
Y1118016D1*
X595686Y1144000D1*
X450249D1*
X582182Y1043906D2*
X450249Y1044000D1*
X1083789Y544000D2*
X1150249D1*
X1004194Y873209D2*
Y669984D1*
X1030178Y644000D1*
X1150249D1*
X1043682Y744000D2*
X1150249D1*
X1083793Y796992D2*
Y877543D1*
X1150249Y944000D1*
X964706Y680173D2*
Y1018016D1*
X990690Y1044000D1*
X1150249D1*
X841312Y745256D2*
Y1118016D1*
X867297Y1144000D1*
X1150249D1*
X1034533Y1096953D2*
X920289D1*
X894304Y1070969D1*
Y680173D1*
X1034533Y1244000D2*
X1150249D1*
D20*
X736348Y569984D3*
X775840Y980531D3*
X801824Y927539D3*
X706430Y1212717D3*
X503206Y1310457D3*
Y894000D3*
X790592Y1269984D3*
X568678Y1309472D3*
X1022052D3*
X542694Y996992D3*
X652493Y944146D3*
X613005Y983634D3*
X582182Y1043906D3*
X1083789Y544000D3*
X1004194Y873209D3*
X1043682Y744000D3*
X1083793Y796992D3*
X964706Y680173D3*
X841312Y745256D3*
X894304Y680173D3*
X1034533Y1096953D3*
Y1244000D3*
X590268Y569131D2*
D15*
X1010244D1*
X590268Y544262D2*
X1010244D1*
X590268Y519394D2*
X1010244D1*
X590268Y494525D2*
X1010244D1*
X590268Y469656D2*
X1010244D1*
X587749Y593976D2*
Y469028D1*
X1012714Y469000D1*
X1012749Y593972D1*
X587785Y594000D1*
D17*
X450249Y1244000D3*
D18*
Y1144000D3*
Y1044000D3*
Y944000D3*
Y844000D3*
Y744000D3*
Y644000D3*
Y544000D3*
D17*
X1150249D3*
D18*
Y644000D3*
Y744000D3*
Y844000D3*
Y944000D3*
Y1044000D3*
Y1144000D3*
Y1244000D3*
M02*
