G04 DipTrace 3.1.0.1*
G04 Top.gbr*
%MOIN*%
G04 #@! TF.FileFunction,Copper,L1,Top*
G04 #@! TF.Part,Single*
G04 #@! TA.AperFunction,Conductor*
%ADD14C,0.012992*%
%ADD16R,0.051181X0.059055*%
G04 #@! TA.AperFunction,ComponentPad*
%ADD17R,0.066929X0.066929*%
%ADD18C,0.066929*%
%ADD19R,0.070866X0.015748*%
G04 #@! TA.AperFunction,ViaPad*
%ADD20C,0.04*%
%FSLAX26Y26*%
G04*
G70*
G90*
G75*
G01*
G04 Top*
%LPD*%
X681430Y772224D2*
D14*
X736348D1*
Y569984D1*
X775840Y980531D2*
Y1106427D1*
X718734D1*
X801824Y927539D2*
X875160Y1000875D1*
Y1106406D1*
X706430Y1212717D2*
Y1318927D1*
X718734Y1106427D2*
X875139D1*
X875160Y1106406D1*
X503206Y1310457D2*
Y894000D1*
X862681Y1331427D2*
Y1269984D1*
X790592D1*
Y1181429D1*
X923978D1*
X949963Y1155444D1*
Y1106406D1*
X503206Y894000D2*
Y823406D1*
X528797Y797815D1*
X681430D1*
X790592Y1181429D2*
X764608Y1155445D1*
X636210D1*
X608167Y1183488D1*
X631627Y1206949D1*
Y1318927D1*
X681430Y823406D2*
X568678D1*
X542694Y849390D1*
Y996992D1*
Y1080442D1*
X568678Y1106427D1*
Y1309472D1*
X1022052D2*
X1000098Y1331427D1*
X937484D1*
X568678Y1106427D2*
X643930D1*
X652493Y944146D2*
Y900177D1*
X681430D1*
X613005Y983634D2*
Y874587D1*
X681430D1*
X582182Y1043906D2*
X710366D1*
X736352Y1017921D1*
Y848996D1*
X681430D1*
X450249Y644000D2*
X552883Y746634D1*
X681430D1*
X450249Y544000D2*
X593325Y687076D1*
Y694661D1*
X619706Y721043D1*
X681430D1*
X1083789Y544000D2*
X801820D1*
X775836Y569984D1*
Y848996D1*
X801820Y874980D1*
X828714D1*
X853911Y900177D1*
X909777D1*
X1004194Y873209D2*
X929529D1*
X928151Y874587D1*
X909777D1*
X1043682Y744000D2*
Y666669D1*
X1017698Y640685D1*
X827804D1*
X801820Y666669D1*
Y823008D1*
X827808Y848996D1*
X909777D1*
X1150249Y844000D2*
X1053982D1*
X1033387Y823406D1*
X909777D1*
X1083793Y796992D2*
X928974D1*
X928151Y797815D1*
X909777D1*
X964706Y680173D2*
Y772224D1*
X909777D1*
X841312Y745256D2*
X890026D1*
X891404Y746634D1*
X909777D1*
X894304Y680173D2*
Y721043D1*
X909785D1*
X1034533Y1244000D2*
Y1096953D1*
D20*
X736348Y569984D3*
X775840Y980531D3*
X801824Y927539D3*
X706430Y1212717D3*
X503206Y1310457D3*
Y894000D3*
X790592Y1269984D3*
X568678Y1309472D3*
X1022052D3*
X542694Y996992D3*
X652493Y944146D3*
X613005Y983634D3*
X582182Y1043906D3*
X1083789Y544000D3*
X1004194Y873209D3*
X1043682Y744000D3*
X1083793Y796992D3*
X964706Y680173D3*
X841312Y745256D3*
X894304Y680173D3*
X1034533Y1096953D3*
Y1244000D3*
D16*
X706430Y1318927D3*
X631627D3*
X875160Y1106406D3*
X949963D3*
X643930Y1106427D3*
X718734D3*
D17*
X450249Y1244000D3*
D18*
Y1144000D3*
Y1044000D3*
Y944000D3*
Y844000D3*
Y744000D3*
Y644000D3*
Y544000D3*
D17*
X1150249D3*
D18*
Y644000D3*
Y744000D3*
Y844000D3*
Y944000D3*
Y1044000D3*
Y1144000D3*
Y1244000D3*
D16*
X862681Y1331427D3*
X937484D3*
D19*
X681430Y900177D3*
Y874587D3*
Y848996D3*
Y823406D3*
Y797815D3*
Y772224D3*
Y746634D3*
Y721043D3*
X909785D3*
X909777Y746634D3*
Y772224D3*
Y797815D3*
Y823406D3*
Y848996D3*
Y874587D3*
Y900177D3*
M02*
