G04 DipTrace 3.1.0.1*
G04 TopSilk.gbr*
%MOIN*%
G04 #@! TF.FileFunction,Legend,Top*
G04 #@! TF.Part,Single*
%ADD10C,0.009843*%
%ADD34C,0.00772*%
%FSLAX26Y26*%
G04*
G70*
G90*
G75*
G01*
G04 TopSilk*
%LPD*%
X747790Y1344497D2*
D10*
Y1293356D1*
X833801Y1080835D2*
Y1131976D1*
X602571Y1080856D2*
Y1131997D1*
X500251Y1293963D2*
X400249D1*
Y494037D1*
X500251D1*
Y1293963D1*
X1100248Y494037D2*
X1200249D1*
Y1293963D1*
X1100248D1*
Y494037D1*
X732622Y916910D2*
Y704310D1*
X858594Y916910D2*
Y704310D1*
X732622D2*
X858594D1*
X732622Y916910D2*
X775919D1*
X815296D2*
X858594D1*
X775919D2*
G03X815296Y916910I19689J23D01*
G01*
X681132Y1409739D2*
D34*
X678755Y1414492D1*
X673947Y1419301D1*
X669194Y1421677D1*
X659632D1*
X654824Y1419301D1*
X650071Y1414492D1*
X647639Y1409739D1*
X645262Y1402554D1*
Y1390560D1*
X647639Y1383431D1*
X650071Y1378622D1*
X654824Y1373869D1*
X659632Y1371437D1*
X669194D1*
X673947Y1373869D1*
X678755Y1378622D1*
X681132Y1383431D1*
X696571Y1412060D2*
X701380Y1414492D1*
X708565Y1421622D1*
Y1371437D1*
X898146Y1197218D2*
X895769Y1201971D1*
X890961Y1206780D1*
X886208Y1209156D1*
X876646D1*
X871838Y1206780D1*
X867084Y1201971D1*
X864652Y1197218D1*
X862276Y1190033D1*
Y1178039D1*
X864652Y1170910D1*
X867084Y1166101D1*
X871838Y1161348D1*
X876646Y1158916D1*
X886208D1*
X890961Y1161348D1*
X895769Y1166101D1*
X898146Y1170910D1*
X916017Y1197163D2*
Y1199539D1*
X918394Y1204348D1*
X920770Y1206724D1*
X925579Y1209101D1*
X935140D1*
X939893Y1206724D1*
X942270Y1204348D1*
X944702Y1199539D1*
Y1194786D1*
X942270Y1189978D1*
X937517Y1182848D1*
X913585Y1158916D1*
X947078D1*
X666916Y1197239D2*
X664540Y1201992D1*
X659731Y1206801D1*
X654978Y1209177D1*
X645416D1*
X640608Y1206801D1*
X635855Y1201992D1*
X633423Y1197239D1*
X631046Y1190054D1*
Y1178060D1*
X633423Y1170931D1*
X635855Y1166122D1*
X640608Y1161369D1*
X645416Y1158937D1*
X654978D1*
X659731Y1161369D1*
X664540Y1166122D1*
X666916Y1170931D1*
X687164Y1209122D2*
X713417D1*
X699102Y1189999D1*
X706287D1*
X711040Y1187622D1*
X713417Y1185245D1*
X715849Y1178060D1*
Y1173307D1*
X713417Y1166122D1*
X708664Y1161314D1*
X701479Y1158937D1*
X694294D1*
X687164Y1161314D1*
X684787Y1163746D1*
X682355Y1168499D1*
X475959Y1386121D2*
Y1347874D1*
X473583Y1340689D1*
X471151Y1338313D1*
X466398Y1335881D1*
X461589D1*
X456836Y1338313D1*
X454460Y1340689D1*
X452028Y1347874D1*
Y1352627D1*
X491399Y1376504D2*
X496207Y1378936D1*
X503392Y1386065D1*
Y1335881D1*
X1110288Y1386121D2*
Y1347874D1*
X1107912Y1340689D1*
X1105480Y1338313D1*
X1100727Y1335881D1*
X1095918D1*
X1091165Y1338313D1*
X1088788Y1340689D1*
X1086357Y1347874D1*
Y1352627D1*
X1128159Y1374127D2*
Y1376504D1*
X1130536Y1381312D1*
X1132913Y1383689D1*
X1137721Y1386065D1*
X1147283D1*
X1152036Y1383689D1*
X1154412Y1381312D1*
X1156844Y1376504D1*
Y1371751D1*
X1154412Y1366942D1*
X1149659Y1359812D1*
X1125728Y1335881D1*
X1159221D1*
X869620Y1410245D2*
X891119D1*
X898305Y1412677D1*
X900736Y1415054D1*
X903113Y1419807D1*
Y1424616D1*
X900736Y1429369D1*
X898305Y1431801D1*
X891119Y1434177D1*
X869620D1*
Y1383937D1*
X886366Y1410245D2*
X903113Y1383937D1*
X918552Y1424560D2*
X923361Y1426992D1*
X930546Y1434122D1*
Y1383937D1*
X765145Y990133D2*
Y954263D1*
X767521Y947078D1*
X772330Y942325D1*
X779515Y939893D1*
X784268D1*
X791453Y942325D1*
X796261Y947078D1*
X798638Y954263D1*
Y990133D1*
X814077Y980516D2*
X818886Y982948D1*
X826071Y990078D1*
Y939893D1*
M02*
